<svg width="1080" height="1080" viewBox="0 0 1080 1080" fill="none" xmlns="http://www.w3.org/2000/svg">
<rect width="1080" height="1080" fill="black"/>
<path d="M365.182 614.68C364.902 615.007 364.575 615.403 364.202 615.87C363.875 616.337 363.572 616.78 363.292 617.2C362.405 618.787 361.075 620.747 359.302 623.08C357.575 625.367 355.568 627.723 353.282 630.15C350.995 632.53 348.522 634.653 345.862 636.52L341.242 632.81C342.875 631.877 344.462 630.757 346.002 629.45C347.588 628.097 349.058 626.697 350.412 625.25C351.812 623.757 353.025 622.31 354.052 620.91C355.125 619.463 355.965 618.203 356.572 617.13C355.825 617.13 354.612 617.13 352.932 617.13C351.298 617.13 349.338 617.13 347.052 617.13C344.812 617.13 342.408 617.13 339.842 617.13C337.275 617.13 334.732 617.13 332.212 617.13C329.692 617.13 327.335 617.13 325.142 617.13C322.948 617.13 321.105 617.13 319.612 617.13C318.118 617.13 317.138 617.13 316.672 617.13C315.365 617.13 314.058 617.177 312.752 617.27C311.445 617.317 310.092 617.41 308.692 617.55V611.18C309.905 611.367 311.212 611.53 312.612 611.67C314.012 611.763 315.365 611.81 316.672 611.81C317.138 611.81 318.142 611.81 319.682 611.81C321.222 611.81 323.088 611.81 325.282 611.81C327.522 611.81 329.948 611.81 332.562 611.81C335.175 611.81 337.765 611.81 340.332 611.81C342.945 611.81 345.395 611.81 347.682 611.81C349.968 611.81 351.905 611.81 353.492 611.81C355.125 611.81 356.245 611.81 356.852 611.81C357.318 611.81 357.855 611.81 358.462 611.81C359.115 611.763 359.745 611.693 360.352 611.6C360.958 611.507 361.425 611.437 361.752 611.39L365.182 614.68ZM337.252 623.92C337.252 627.7 337.135 631.247 336.902 634.56C336.668 637.873 336.202 640.977 335.502 643.87C334.802 646.763 333.728 649.447 332.282 651.92C330.882 654.347 328.992 656.633 326.612 658.78C324.232 660.88 321.268 662.817 317.722 664.59L312.542 660.39C313.522 660.063 314.572 659.643 315.692 659.13C316.812 658.57 317.862 657.94 318.842 657.24C321.595 655.607 323.788 653.763 325.422 651.71C327.055 649.657 328.268 647.44 329.062 645.06C329.902 642.633 330.462 640.09 330.742 637.43C331.068 634.723 331.232 631.923 331.232 629.03C331.232 628.143 331.208 627.303 331.162 626.51C331.162 625.717 331.092 624.853 330.952 623.92H337.252ZM402.595 614.75C402.595 613.677 402.525 612.44 402.385 611.04C402.291 609.593 402.151 608.52 401.965 607.82H408.895C408.801 608.52 408.708 609.617 408.615 611.11C408.521 612.557 408.475 613.793 408.475 614.82C408.475 616.127 408.475 617.667 408.475 619.44C408.475 621.167 408.475 622.94 408.475 624.76C408.475 626.533 408.475 628.143 408.475 629.59C408.475 633.417 408.125 637.01 407.425 640.37C406.725 643.73 405.605 646.88 404.065 649.82C402.571 652.713 400.588 655.397 398.115 657.87C395.641 660.297 392.631 662.56 389.085 664.66L383.625 660.6C386.938 659.013 389.785 657.193 392.165 655.14C394.545 653.087 396.505 650.777 398.045 648.21C399.631 645.597 400.775 642.75 401.475 639.67C402.221 636.543 402.595 633.183 402.595 629.59C402.595 628.143 402.595 626.533 402.595 624.76C402.595 622.987 402.595 621.213 402.595 619.44C402.595 617.667 402.595 616.103 402.595 614.75ZM375.435 623.85C376.181 623.943 377.138 624.037 378.305 624.13C379.518 624.177 380.731 624.2 381.945 624.2C382.458 624.2 383.578 624.2 385.305 624.2C387.078 624.2 389.248 624.2 391.815 624.2C394.381 624.2 397.135 624.2 400.075 624.2C403.061 624.2 406.025 624.2 408.965 624.2C411.951 624.2 414.728 624.2 417.295 624.2C419.861 624.2 422.008 624.2 423.735 624.2C425.461 624.2 426.581 624.2 427.095 624.2C428.261 624.2 429.428 624.177 430.595 624.13C431.761 624.037 432.625 623.967 433.185 623.92V629.87C432.625 629.777 431.738 629.73 430.525 629.73C429.311 629.683 428.145 629.66 427.025 629.66C426.511 629.66 425.391 629.66 423.665 629.66C421.938 629.66 419.791 629.66 417.225 629.66C414.705 629.66 411.951 629.66 408.965 629.66C406.025 629.66 403.061 629.66 400.075 629.66C397.135 629.66 394.381 629.66 391.815 629.66C389.295 629.66 387.171 629.66 385.445 629.66C383.718 629.66 382.598 629.66 382.085 629.66C380.778 629.66 379.518 629.683 378.305 629.73C377.138 629.777 376.181 629.823 375.435 629.87V623.85ZM494.435 608.59C494.855 609.43 495.321 610.433 495.835 611.6C496.348 612.767 496.838 613.957 497.305 615.17C497.818 616.337 498.215 617.387 498.495 618.32L495.065 619.51C494.738 618.483 494.341 617.387 493.875 616.22C493.408 615.053 492.941 613.887 492.475 612.72C492.008 611.553 491.541 610.527 491.075 609.64L494.435 608.59ZM501.365 606.49C501.831 607.33 502.321 608.333 502.835 609.5C503.348 610.62 503.861 611.763 504.375 612.93C504.888 614.097 505.285 615.17 505.565 616.15L502.135 617.27C501.575 615.73 500.921 614.05 500.175 612.23C499.428 610.41 498.705 608.847 498.005 607.54L501.365 606.49ZM487.785 631.06C487.785 635.727 487.481 639.88 486.875 643.52C486.268 647.113 485.218 650.31 483.725 653.11C482.278 655.863 480.248 658.337 477.635 660.53C475.068 662.677 471.778 664.66 467.765 666.48L463.075 662C466.248 660.787 469.025 659.433 471.405 657.94C473.785 656.4 475.768 654.51 477.355 652.27C478.941 650.03 480.131 647.253 480.925 643.94C481.718 640.58 482.115 636.45 482.115 631.55V614.54C482.115 613.14 482.068 611.927 481.975 610.9C481.928 609.827 481.881 609.127 481.835 608.8H488.135C488.088 609.127 488.018 609.827 487.925 610.9C487.831 611.927 487.785 613.14 487.785 614.54V631.06ZM462.515 609.22C462.515 609.547 462.468 610.177 462.375 611.11C462.281 611.997 462.235 613.047 462.235 614.26V639.95C462.235 640.79 462.258 641.677 462.305 642.61C462.351 643.497 462.375 644.267 462.375 644.92C462.421 645.573 462.468 646.017 462.515 646.25H456.285C456.331 646.017 456.378 645.573 456.425 644.92C456.471 644.267 456.518 643.497 456.565 642.61C456.611 641.723 456.635 640.837 456.635 639.95V614.33C456.635 613.537 456.611 612.697 456.565 611.81C456.518 610.877 456.425 610.013 456.285 609.22H462.515ZM442.075 622.8C442.261 622.847 442.728 622.917 443.475 623.01C444.221 623.057 445.085 623.127 446.065 623.22C447.091 623.267 448.095 623.29 449.075 623.29H495.415C497.001 623.29 498.355 623.243 499.475 623.15C500.595 623.057 501.388 622.963 501.855 622.87V628.82C501.481 628.773 500.711 628.727 499.545 628.68C498.378 628.633 497.025 628.61 495.485 628.61H449.075C448.048 628.61 447.045 628.633 446.065 628.68C445.131 628.68 444.291 628.703 443.545 628.75C442.845 628.797 442.355 628.843 442.075 628.89V622.8ZM515.785 631.69C516.485 631.737 517.348 631.807 518.375 631.9C519.401 631.947 520.521 631.993 521.735 632.04C522.995 632.04 524.255 632.04 525.515 632.04C526.261 632.04 527.405 632.04 528.945 632.04C530.531 632.04 532.375 632.04 534.475 632.04C536.575 632.04 538.791 632.04 541.125 632.04C543.505 632.04 545.861 632.04 548.195 632.04C550.575 632.04 552.815 632.04 554.915 632.04C557.061 632.04 558.905 632.04 560.445 632.04C561.985 632.04 563.128 632.04 563.875 632.04C565.648 632.04 567.165 631.993 568.425 631.9C569.685 631.807 570.688 631.737 571.435 631.69V638.55C570.735 638.503 569.685 638.433 568.285 638.34C566.931 638.247 565.485 638.2 563.945 638.2C563.198 638.2 562.031 638.2 560.445 638.2C558.858 638.2 557.015 638.2 554.915 638.2C552.861 638.2 550.645 638.2 548.265 638.2C545.885 638.2 543.505 638.2 541.125 638.2C538.791 638.2 536.575 638.2 534.475 638.2C532.421 638.2 530.601 638.2 529.015 638.2C527.428 638.2 526.261 638.2 525.515 638.2C523.601 638.2 521.781 638.247 520.055 638.34C518.328 638.387 516.905 638.457 515.785 638.55V631.69ZM627.395 603.83C627.955 604.623 628.585 605.58 629.285 606.7C629.985 607.82 630.661 608.94 631.315 610.06C631.968 611.133 632.505 612.137 632.925 613.07L629.075 614.75C628.608 613.817 628.048 612.79 627.395 611.67C626.788 610.55 626.135 609.453 625.435 608.38C624.781 607.26 624.151 606.28 623.545 605.44L627.395 603.83ZM636.355 602.01C636.961 602.803 637.615 603.76 638.315 604.88C639.015 605.953 639.691 607.073 640.345 608.24C641.045 609.36 641.628 610.363 642.095 611.25L638.245 612.93C637.451 611.483 636.541 609.873 635.515 608.1C634.488 606.327 633.485 604.833 632.505 603.62L636.355 602.01ZM633.695 616.43C633.461 616.897 633.251 617.433 633.065 618.04C632.925 618.6 632.785 619.23 632.645 619.93C632.271 621.75 631.781 623.78 631.175 626.02C630.568 628.26 629.821 630.57 628.935 632.95C628.095 635.283 627.091 637.547 625.925 639.74C624.805 641.933 623.568 643.94 622.215 645.76C620.068 648.467 617.665 650.987 615.005 653.32C612.391 655.653 609.405 657.753 606.045 659.62C602.731 661.487 598.928 663.097 594.635 664.45L589.875 659.2C594.401 658.08 598.321 656.68 601.635 655C604.995 653.32 607.935 651.43 610.455 649.33C612.975 647.183 615.215 644.873 617.175 642.4C618.855 640.253 620.301 637.85 621.515 635.19C622.775 632.483 623.801 629.777 624.595 627.07C625.435 624.317 626.018 621.82 626.345 619.58C625.645 619.58 624.385 619.58 622.565 619.58C620.791 619.58 618.668 619.58 616.195 619.58C613.721 619.58 611.131 619.58 608.425 619.58C605.718 619.58 603.128 619.58 600.655 619.58C598.228 619.58 596.105 619.58 594.285 619.58C592.465 619.58 591.205 619.58 590.505 619.58C589.151 619.58 587.868 619.603 586.655 619.65C585.488 619.697 584.461 619.743 583.575 619.79V613.56C584.228 613.653 584.928 613.747 585.675 613.84C586.468 613.887 587.285 613.933 588.125 613.98C589.011 614.027 589.828 614.05 590.575 614.05C591.135 614.05 592.115 614.05 593.515 614.05C594.961 614.05 596.688 614.05 598.695 614.05C600.701 614.05 602.825 614.05 605.065 614.05C607.305 614.05 609.545 614.05 611.785 614.05C614.025 614.05 616.101 614.05 618.015 614.05C619.975 614.05 621.631 614.05 622.985 614.05C624.338 614.05 625.225 614.05 625.645 614.05C626.205 614.05 626.811 614.027 627.465 613.98C628.118 613.933 628.771 613.84 629.425 613.7L633.695 616.43ZM651.615 631.69C652.315 631.737 653.178 631.807 654.205 631.9C655.231 631.947 656.351 631.993 657.565 632.04C658.825 632.04 660.085 632.04 661.345 632.04C662.091 632.04 663.235 632.04 664.775 632.04C666.361 632.04 668.205 632.04 670.305 632.04C672.405 632.04 674.621 632.04 676.955 632.04C679.335 632.04 681.691 632.04 684.025 632.04C686.405 632.04 688.645 632.04 690.745 632.04C692.891 632.04 694.735 632.04 696.275 632.04C697.815 632.04 698.958 632.04 699.705 632.04C701.478 632.04 702.995 631.993 704.255 631.9C705.515 631.807 706.518 631.737 707.265 631.69V638.55C706.565 638.503 705.515 638.433 704.115 638.34C702.761 638.247 701.315 638.2 699.775 638.2C699.028 638.2 697.861 638.2 696.275 638.2C694.688 638.2 692.845 638.2 690.745 638.2C688.691 638.2 686.475 638.2 684.095 638.2C681.715 638.2 679.335 638.2 676.955 638.2C674.621 638.2 672.405 638.2 670.305 638.2C668.251 638.2 666.431 638.2 664.845 638.2C663.258 638.2 662.091 638.2 661.345 638.2C659.431 638.2 657.611 638.247 655.885 638.34C654.158 638.387 652.735 638.457 651.615 638.55V631.69ZM766.988 615.17C766.755 615.45 766.452 615.917 766.078 616.57C765.752 617.177 765.472 617.737 765.238 618.25C764.352 620.537 763.185 623.08 761.738 625.88C760.292 628.633 758.682 631.363 756.908 634.07C755.135 636.777 753.268 639.227 751.308 641.42C748.742 644.313 745.918 647.137 742.838 649.89C739.758 652.597 736.515 655.14 733.108 657.52C729.702 659.853 726.155 661.86 722.468 663.54L717.988 658.85C721.768 657.357 725.385 655.513 728.838 653.32C732.338 651.08 735.605 648.653 738.638 646.04C741.718 643.38 744.448 640.72 746.828 638.06C748.415 636.24 749.978 634.21 751.518 631.97C753.105 629.683 754.505 627.373 755.718 625.04C756.978 622.66 757.888 620.513 758.448 618.6C758.075 618.6 757.188 618.6 755.788 618.6C754.388 618.6 752.732 618.6 750.818 618.6C748.905 618.6 746.898 618.6 744.798 618.6C742.698 618.6 740.692 618.6 738.778 618.6C736.865 618.6 735.208 618.6 733.808 618.6C732.455 618.6 731.568 618.6 731.148 618.6C730.355 618.6 729.445 618.623 728.418 618.67C727.438 618.717 726.528 618.763 725.688 618.81C724.895 618.857 724.358 618.903 724.078 618.95V612.58C724.405 612.627 724.988 612.697 725.828 612.79C726.715 612.837 727.648 612.883 728.628 612.93C729.608 612.977 730.448 613 731.148 613C731.662 613 732.595 613 733.948 613C735.302 613 736.912 613 738.778 613C740.692 613 742.675 613 744.728 613C746.782 613 748.742 613 750.608 613C752.522 613 754.155 613 755.508 613C756.862 613 757.748 613 758.168 613C759.335 613 760.362 612.953 761.248 612.86C762.182 612.767 762.905 612.627 763.418 612.44L766.988 615.17ZM752.218 637.71C754.132 639.297 756.092 641.047 758.098 642.96C760.152 644.873 762.158 646.857 764.118 648.91C766.078 650.917 767.898 652.853 769.578 654.72C771.258 656.54 772.705 658.197 773.918 659.69L769.018 663.89C767.385 661.65 765.425 659.247 763.138 656.68C760.852 654.067 758.425 651.477 755.858 648.91C753.338 646.297 750.795 643.893 748.228 641.7L752.218 637.71Z" fill="white"/>
<path d="M194.614 522.449C190.466 522.449 186.716 521.682 183.364 520.148C180.011 518.585 177.355 516.327 175.395 513.372C173.463 510.418 172.497 506.795 172.497 502.506C172.497 498.812 173.207 495.773 174.628 493.386C176.048 491 177.966 489.111 180.381 487.719C182.795 486.327 185.494 485.276 188.477 484.565C191.46 483.855 194.5 483.315 197.597 482.946C201.517 482.491 204.699 482.122 207.142 481.838C209.585 481.526 211.361 481.028 212.469 480.347C213.577 479.665 214.131 478.557 214.131 477.023V476.724C214.131 473.003 213.08 470.119 210.977 468.074C208.903 466.028 205.807 465.006 201.688 465.006C197.398 465.006 194.017 465.957 191.545 467.861C189.102 469.736 187.412 471.824 186.474 474.125L174.5 471.398C175.92 467.42 177.994 464.21 180.722 461.767C183.477 459.295 186.645 457.506 190.224 456.398C193.804 455.261 197.568 454.693 201.517 454.693C204.131 454.693 206.901 455.006 209.827 455.631C212.781 456.227 215.537 457.335 218.094 458.955C220.679 460.574 222.795 462.889 224.443 465.901C226.091 468.884 226.915 472.761 226.915 477.534V521H214.472V512.051H213.96C213.136 513.699 211.901 515.318 210.253 516.909C208.605 518.5 206.489 519.821 203.903 520.872C201.318 521.923 198.222 522.449 194.614 522.449ZM197.384 512.222C200.906 512.222 203.918 511.526 206.418 510.134C208.946 508.741 210.864 506.923 212.17 504.679C213.506 502.406 214.173 499.977 214.173 497.392V488.955C213.719 489.409 212.838 489.835 211.531 490.233C210.253 490.602 208.79 490.929 207.142 491.213C205.494 491.469 203.889 491.71 202.327 491.938C200.764 492.136 199.457 492.307 198.406 492.449C195.935 492.761 193.676 493.287 191.631 494.026C189.614 494.764 187.994 495.83 186.773 497.222C185.58 498.585 184.983 500.403 184.983 502.676C184.983 505.83 186.148 508.216 188.477 509.835C190.807 511.426 193.776 512.222 197.384 512.222ZM253.027 482.136V521H240.286V455.545H252.516V466.199H253.325C254.831 462.733 257.189 459.949 260.399 457.847C263.638 455.744 267.715 454.693 272.629 454.693C277.09 454.693 280.996 455.631 284.348 457.506C287.7 459.352 290.3 462.108 292.146 465.773C293.993 469.437 294.916 473.969 294.916 479.366V521H282.175V480.901C282.175 476.156 280.939 472.449 278.467 469.778C275.996 467.08 272.601 465.73 268.283 465.73C265.328 465.73 262.7 466.369 260.399 467.648C258.127 468.926 256.323 470.801 254.987 473.273C253.681 475.716 253.027 478.67 253.027 482.136ZM335.975 522.321C329.839 522.321 324.484 520.915 319.91 518.102C315.336 515.29 311.785 511.355 309.257 506.298C306.728 501.241 305.464 495.332 305.464 488.571C305.464 481.781 306.728 475.844 309.257 470.759C311.785 465.673 315.336 461.724 319.91 458.912C324.484 456.099 329.839 454.693 335.975 454.693C342.112 454.693 347.467 456.099 352.041 458.912C356.615 461.724 360.166 465.673 362.694 470.759C365.223 475.844 366.487 481.781 366.487 488.571C366.487 495.332 365.223 501.241 362.694 506.298C360.166 511.355 356.615 515.29 352.041 518.102C347.467 520.915 342.112 522.321 335.975 522.321ZM336.018 511.625C339.995 511.625 343.291 510.574 345.904 508.472C348.518 506.369 350.45 503.571 351.7 500.077C352.978 496.582 353.617 492.733 353.617 488.528C353.617 484.352 352.978 480.517 351.7 477.023C350.45 473.5 348.518 470.673 345.904 468.543C343.291 466.412 339.995 465.347 336.018 465.347C332.012 465.347 328.688 466.412 326.046 468.543C323.433 470.673 321.487 473.5 320.208 477.023C318.958 480.517 318.333 484.352 318.333 488.528C318.333 492.733 318.958 496.582 320.208 500.077C321.487 503.571 323.433 506.369 326.046 508.472C328.688 510.574 332.012 511.625 336.018 511.625ZM407.663 455.545V465.773H371.91V455.545H407.663ZM381.498 439.864H394.24V501.781C394.24 504.253 394.609 506.114 395.348 507.364C396.086 508.585 397.038 509.423 398.203 509.878C399.396 510.304 400.689 510.517 402.081 510.517C403.103 510.517 403.998 510.446 404.765 510.304C405.532 510.162 406.129 510.048 406.555 509.963L408.856 520.489C408.118 520.773 407.066 521.057 405.703 521.341C404.339 521.653 402.635 521.824 400.589 521.852C397.237 521.909 394.112 521.312 391.214 520.062C388.316 518.812 385.973 516.881 384.183 514.267C382.393 511.653 381.498 508.372 381.498 504.423V439.864ZM432.305 482.136V521H419.564V433.727H432.135V466.199H432.944C434.479 462.676 436.822 459.878 439.976 457.804C443.129 455.73 447.248 454.693 452.334 454.693C456.822 454.693 460.743 455.616 464.095 457.463C467.476 459.31 470.089 462.065 471.936 465.73C473.811 469.366 474.748 473.912 474.748 479.366V521H462.007V480.901C462.007 476.099 460.771 472.378 458.3 469.736C455.828 467.065 452.39 465.73 447.987 465.73C444.976 465.73 442.277 466.369 439.89 467.648C437.533 468.926 435.672 470.801 434.308 473.273C432.973 475.716 432.305 478.67 432.305 482.136ZM516.362 522.321C509.913 522.321 504.359 520.943 499.7 518.188C495.069 515.403 491.489 511.497 488.961 506.469C486.461 501.412 485.211 495.489 485.211 488.699C485.211 481.994 486.461 476.085 488.961 470.972C491.489 465.858 495.012 461.866 499.529 458.997C504.075 456.128 509.387 454.693 515.467 454.693C519.16 454.693 522.739 455.304 526.205 456.526C529.671 457.747 532.782 459.665 535.538 462.278C538.293 464.892 540.467 468.287 542.058 472.463C543.648 476.611 544.444 481.653 544.444 487.591V492.108H492.413V482.562H531.958C531.958 479.21 531.276 476.241 529.913 473.656C528.549 471.043 526.631 468.983 524.16 467.477C521.717 465.972 518.847 465.219 515.552 465.219C511.972 465.219 508.847 466.099 506.177 467.861C503.535 469.594 501.489 471.866 500.04 474.679C498.62 477.463 497.91 480.489 497.91 483.756V491.213C497.91 495.588 498.677 499.31 500.211 502.378C501.773 505.446 503.947 507.79 506.731 509.409C509.515 511 512.768 511.795 516.489 511.795C518.904 511.795 521.106 511.455 523.094 510.773C525.083 510.062 526.802 509.011 528.251 507.619C529.7 506.227 530.808 504.509 531.575 502.463L543.634 504.636C542.668 508.187 540.935 511.298 538.435 513.969C535.964 516.611 532.853 518.67 529.103 520.148C525.381 521.597 521.134 522.321 516.362 522.321ZM554.981 521V455.545H567.296V465.943H567.978C569.171 462.42 571.274 459.651 574.285 457.634C577.325 455.588 580.762 454.565 584.597 454.565C585.393 454.565 586.33 454.594 587.41 454.651C588.518 454.707 589.384 454.778 590.009 454.864V467.051C589.498 466.909 588.589 466.753 587.282 466.582C585.975 466.384 584.668 466.284 583.362 466.284C580.35 466.284 577.666 466.923 575.308 468.202C572.978 469.452 571.132 471.199 569.768 473.443C568.404 475.659 567.722 478.187 567.722 481.028V521H554.981Z" fill="white"/>
<path d="M598.458 521V433.727H611.2V466.156H611.967C612.706 464.793 613.771 463.216 615.163 461.426C616.555 459.636 618.487 458.074 620.958 456.739C623.43 455.375 626.697 454.693 630.76 454.693C636.044 454.693 640.76 456.028 644.907 458.699C649.055 461.369 652.308 465.219 654.666 470.247C657.052 475.276 658.245 481.327 658.245 488.401C658.245 495.474 657.066 501.54 654.708 506.597C652.35 511.625 649.112 515.503 644.992 518.23C640.873 520.929 636.171 522.278 630.887 522.278C626.91 522.278 623.657 521.611 621.129 520.276C618.629 518.94 616.669 517.378 615.248 515.588C613.828 513.798 612.734 512.207 611.967 510.815H610.902V521H598.458ZM610.944 488.273C610.944 492.875 611.612 496.909 612.947 500.375C614.282 503.841 616.214 506.554 618.742 508.514C621.271 510.446 624.367 511.412 628.032 511.412C631.839 511.412 635.021 510.403 637.578 508.386C640.135 506.341 642.066 503.571 643.373 500.077C644.708 496.582 645.376 492.648 645.376 488.273C645.376 483.955 644.723 480.077 643.416 476.639C642.137 473.202 640.206 470.489 637.62 468.5C635.063 466.511 631.867 465.517 628.032 465.517C624.339 465.517 621.214 466.469 618.657 468.372C616.129 470.276 614.211 472.932 612.904 476.341C611.598 479.75 610.944 483.727 610.944 488.273Z" fill="#EE5C4D"/>
<path d="M696.524 522.321C690.388 522.321 685.032 520.915 680.459 518.102C675.885 515.29 672.334 511.355 669.805 506.298C667.277 501.241 666.013 495.332 666.013 488.571C666.013 481.781 667.277 475.844 669.805 470.759C672.334 465.673 675.885 461.724 680.459 458.912C685.032 456.099 690.388 454.693 696.524 454.693C702.66 454.693 708.015 456.099 712.589 458.912C717.163 461.724 720.714 465.673 723.243 470.759C725.771 475.844 727.035 481.781 727.035 488.571C727.035 495.332 725.771 501.241 723.243 506.298C720.714 511.355 717.163 515.29 712.589 518.102C708.015 520.915 702.66 522.321 696.524 522.321ZM696.566 511.625C700.544 511.625 703.839 510.574 706.453 508.472C709.066 506.369 710.998 503.571 712.248 500.077C713.527 496.582 714.166 492.733 714.166 488.528C714.166 484.352 713.527 480.517 712.248 477.023C710.998 473.5 709.066 470.673 706.453 468.543C703.839 466.412 700.544 465.347 696.566 465.347C692.561 465.347 689.237 466.412 686.595 468.543C683.981 470.673 682.035 473.5 680.757 477.023C679.507 480.517 678.882 484.352 678.882 488.528C678.882 492.733 679.507 496.582 680.757 500.077C682.035 503.571 683.981 506.369 686.595 508.472C689.237 510.574 692.561 511.625 696.566 511.625Z" fill="#EA881E"/>
<path d="M765.229 522.321C759.092 522.321 753.737 520.915 749.163 518.102C744.589 515.29 741.038 511.355 738.51 506.298C735.981 501.241 734.717 495.332 734.717 488.571C734.717 481.781 735.981 475.844 738.51 470.759C741.038 465.673 744.589 461.724 749.163 458.912C753.737 456.099 759.092 454.693 765.229 454.693C771.365 454.693 776.72 456.099 781.294 458.912C785.868 461.724 789.419 465.673 791.947 470.759C794.476 475.844 795.74 481.781 795.74 488.571C795.74 495.332 794.476 501.241 791.947 506.298C789.419 511.355 785.868 515.29 781.294 518.102C776.72 520.915 771.365 522.321 765.229 522.321ZM765.271 511.625C769.248 511.625 772.544 510.574 775.158 508.472C777.771 506.369 779.703 503.571 780.953 500.077C782.231 496.582 782.871 492.733 782.871 488.528C782.871 484.352 782.231 480.517 780.953 477.023C779.703 473.5 777.771 470.673 775.158 468.543C772.544 466.412 769.248 465.347 765.271 465.347C761.265 465.347 757.942 466.412 755.3 468.543C752.686 470.673 750.74 473.5 749.461 477.023C748.211 480.517 747.586 484.352 747.586 488.528C747.586 492.733 748.211 496.582 749.461 500.077C750.74 503.571 752.686 506.369 755.3 508.472C757.942 510.574 761.265 511.625 765.271 511.625Z" fill="#FFC60B"/>
<path d="M836.916 455.545V465.773H801.163V455.545H836.916ZM810.751 439.864H823.493V501.781C823.493 504.253 823.862 506.114 824.601 507.364C825.339 508.585 826.291 509.423 827.456 509.878C828.649 510.304 829.942 510.517 831.334 510.517C832.357 510.517 833.251 510.446 834.018 510.304C834.786 510.162 835.382 510.048 835.808 509.963L838.109 520.489C837.371 520.773 836.32 521.057 834.956 521.341C833.592 521.653 831.888 521.824 829.842 521.852C826.49 521.909 823.365 521.312 820.467 520.062C817.57 518.812 815.226 516.881 813.436 514.267C811.646 511.653 810.751 508.372 810.751 504.423V439.864Z" fill="#6CC17D"/>
<path d="M861.558 482.136V521H848.817V433.727H861.388V466.199H862.198C863.732 462.676 866.075 459.878 869.229 457.804C872.382 455.73 876.502 454.693 881.587 454.693C886.075 454.693 889.996 455.616 893.348 457.463C896.729 459.31 899.342 462.065 901.189 465.73C903.064 469.366 904.002 473.912 904.002 479.366V521H891.26V480.901C891.26 476.099 890.024 472.378 887.553 469.736C885.081 467.065 881.644 465.73 877.24 465.73C874.229 465.73 871.53 466.369 869.144 467.648C866.786 468.926 864.925 470.801 863.561 473.273C862.226 475.716 861.558 478.67 861.558 482.136Z" fill="#00A6E4"/>
</svg>
